<?xml version="1.0" encoding="utf-8"?>
<!-- Generator: Adobe Illustrator 17.0.0, SVG Export Plug-In . SVG Version: 6.00 Build 0)  -->
<!DOCTYPE svg PUBLIC "-//W3C//DTD SVG 1.1//EN" "http://www.w3.org/Graphics/SVG/1.1/DTD/svg11.dtd">
<svg version="1.1" id="Layer_1" xmlns="http://www.w3.org/2000/svg" xmlns:xlink="http://www.w3.org/1999/xlink" x="0px" y="0px"
	 width="65px" height="65px" viewBox="33 195 65 65" enable-background="new 33 195 65 65" xml:space="preserve">
<g>
	<g>
		<path fill="none" d="M77.68,225.599c-0.048-0.233-0.104-0.463-0.166-0.69c-0.068-0.255-0.144-0.507-0.231-0.758
			c-0.056-0.164-0.115-0.327-0.178-0.488c-0.121-0.306-0.255-0.61-0.403-0.911c-0.246-0.5-0.524-0.981-0.836-1.439
			c-0.198-0.292-0.409-0.57-0.628-0.839c-0.074-0.091-0.147-0.182-0.224-0.271c-0.218-0.253-0.449-0.492-0.685-0.723
			c-0.093-0.09-0.182-0.18-0.278-0.267c-0.235-0.216-0.482-0.416-0.731-0.611c-0.108-0.084-0.213-0.169-0.324-0.249
			c-0.528-0.381-1.087-0.706-1.664-0.995c-0.22-0.11-0.438-0.223-0.665-0.32c-0.217-0.093-0.441-0.168-0.663-0.246
			c-0.222-0.079-0.444-0.159-0.67-0.225c-0.227-0.066-0.457-0.119-0.688-0.172c-0.241-0.055-0.483-0.104-0.728-0.144
			c-0.22-0.036-0.442-0.064-0.664-0.089c-0.407-0.042-0.815-0.08-1.233-0.08c-0.245,0-0.481,0.032-0.72,0.047
			c-0.3,0.018-0.601,0.026-0.902,0.067c-0.206,0.028-0.402,0.081-0.605,0.119c-0.286,0.055-0.572,0.098-0.856,0.175
			c-0.252,0.067-0.491,0.162-0.736,0.245c-0.226,0.076-0.454,0.14-0.678,0.231c-0.253,0.103-0.491,0.232-0.735,0.352
			s-0.493,0.223-0.733,0.362c-0.334,0.193-0.64,0.414-0.947,0.633c-0.202,0.143-0.4,0.29-0.592,0.446
			c-0.176,0.142-0.341,0.292-0.506,0.443c-0.194,0.177-0.387,0.352-0.569,0.541c-0.146,0.152-0.281,0.313-0.417,0.471
			c-0.175,0.2-0.349,0.399-0.51,0.611c-0.13,0.173-0.245,0.354-0.364,0.532c-0.37,0.549-0.7,1.125-0.975,1.734
			c-0.071,0.158-0.138,0.317-0.203,0.478c-0.11,0.273-0.21,0.55-0.298,0.833c-0.05,0.158-0.097,0.315-0.14,0.474
			c-0.081,0.3-0.151,0.606-0.21,0.916c-0.027,0.145-0.055,0.293-0.076,0.439c-0.049,0.331-0.083,0.666-0.105,1.005
			c-0.039,0.589-0.036,1.181,0.015,1.776c0.024,0.283,0.059,0.563,0.102,0.84c0.032,0.206,0.068,0.413,0.111,0.618
			c0.046,0.222,0.101,0.442,0.16,0.659c0.071,0.262,0.15,0.522,0.24,0.78c0.056,0.16,0.113,0.317,0.175,0.473
			c0.123,0.31,0.259,0.617,0.41,0.921c0.247,0.499,0.526,0.98,0.838,1.438c0.197,0.288,0.407,0.564,0.624,0.83
			c0.075,0.092,0.148,0.184,0.227,0.273c0.218,0.252,0.448,0.49,0.685,0.72c0.092,0.089,0.18,0.178,0.275,0.264
			c0.237,0.216,0.484,0.417,0.736,0.612c0.105,0.082,0.209,0.166,0.317,0.245c0.534,0.385,1.102,0.714,1.687,1.004
			c0.212,0.105,0.421,0.214,0.641,0.307c0.221,0.094,0.448,0.171,0.674,0.25c0.217,0.077,0.434,0.155,0.658,0.22
			c0.227,0.065,0.458,0.119,0.688,0.171c0.241,0.055,0.483,0.104,0.728,0.144c0.217,0.035,0.436,0.063,0.656,0.087
			c0.406,0.042,0.813,0.08,1.231,0.08c0.274,0,0.538-0.034,0.807-0.053c0.273-0.019,0.547-0.025,0.82-0.062
			c0.267-0.037,0.525-0.101,0.787-0.156c0.224-0.046,0.449-0.077,0.672-0.138c0.342-0.093,0.671-0.214,1.001-0.334
			c0.136-0.05,0.275-0.085,0.41-0.14c0.314-0.128,0.613-0.286,0.913-0.439c0.15-0.076,0.304-0.14,0.452-0.224
			c0.101-0.058,0.199-0.122,0.299-0.181c0.261-0.158,0.509-0.33,0.753-0.503c0.2-0.143,0.399-0.289,0.59-0.444
			c0.176-0.143,0.342-0.295,0.508-0.446c0.194-0.177,0.386-0.351,0.568-0.54c0.145-0.151,0.279-0.312,0.415-0.469
			c0.176-0.203,0.353-0.403,0.515-0.617c0.123-0.162,0.229-0.334,0.342-0.501c0.161-0.238,0.33-0.471,0.473-0.721
			c0.005-0.008,0.008-0.016,0.013-0.023c0.193-0.336,0.362-0.688,0.521-1.043c0.059-0.13,0.114-0.261,0.168-0.393
			c0.122-0.298,0.232-0.604,0.33-0.914c0.042-0.131,0.08-0.262,0.116-0.395c0.091-0.325,0.167-0.654,0.229-0.99
			c0.022-0.123,0.044-0.245,0.063-0.368c0.055-0.351,0.092-0.708,0.114-1.069c0.037-0.568,0.034-1.139-0.012-1.711
			c-0.024-0.301-0.06-0.598-0.106-0.892C77.754,225.984,77.721,225.792,77.68,225.599z"/>
	</g>
	<g>
		<path fill="none" d="M72.183,238.216c-0.1,0.059-0.198,0.125-0.299,0.181c0.034-0.02,0.071-0.031,0.105-0.052
			C72.057,238.307,72.116,238.257,72.183,238.216z"/>
	</g>
	<g>
		<path d="M70.003,217.735c-0.096,0-0.194-0.015-0.291-0.047l0,0c-0.001,0-0.002,0-0.003,0v-0.001c-0.001,0-0.001,0-0.002,0
			c0,0,0.001-0.001-0.003-0.001l0,0c-0.001-0.001-0.002-0.001-0.002-0.001c-0.001,0-0.001,0-0.001,0
			c-0.001-0.001-0.001-0.001-0.002-0.001h-0.001c-0.001-0.001-0.001-0.001-0.002-0.001h-0.001c-0.001-0.001-0.001-0.001-0.001-0.001
			c-0.001,0-0.001,0-0.002,0l-0.001-0.001h-0.001c-0.001,0-0.001,0-0.002-0.001c0,0-0.001,0-0.002-0.001
			c0,0-0.006-0.002-0.013-0.005c-0.001,0-0.002,0-0.002,0c-0.2-0.072-0.399-0.143-0.604-0.203c-0.499-0.146-0.787-0.669-0.641-1.17
			c0.145-0.499,0.667-0.786,1.168-0.644c0.229,0.066,0.454,0.146,0.68,0.227c0.002,0,0.003,0.001,0.005,0.001
			c0.009,0.004,0.018,0.007,0.026,0.01c0.492,0.176,0.755,0.719,0.579,1.209C70.75,217.492,70.389,217.735,70.003,217.735z"/>
	</g>
	<g>
		<path d="M63.795,217.259c-0.447,0-0.843-0.317-0.927-0.77c-0.095-0.513,0.243-1.005,0.755-1.102l0.202-0.042
			c0.148-0.032,0.296-0.063,0.446-0.084h0.001c0.001,0,0.001,0,0.002-0.001c0.52-0.072,0.993,0.291,1.063,0.806
			c0.072,0.516-0.289,0.992-0.805,1.064c-0.103,0.015-0.203,0.037-0.303,0.059l-0.258,0.054
			C63.91,217.253,63.851,217.259,63.795,217.259z"/>
	</g>
	<g>
		<path d="M68.648,217.338c-0.069,0-0.138-0.008-0.209-0.023h-0.001l0,0l0,0c-0.219-0.05-0.441-0.095-0.663-0.132
			c-0.005,0-0.008-0.002-0.008-0.001c-0.515-0.084-0.864-0.569-0.781-1.083c0.084-0.514,0.565-0.869,1.082-0.781
			c0.241,0.039,0.48,0.087,0.716,0.139c0.465,0.059,0.825,0.455,0.825,0.937C69.61,216.922,69.156,217.353,68.648,217.338z"/>
	</g>
	<g>
		<path d="M60.861,218.228c-0.347,0-0.681-0.192-0.846-0.524c-0.222-0.445-0.059-0.981,0.36-1.232l0.03,0.06l-0.03-0.06l0.03,0.06
			l-0.03-0.06c0.021-0.012,0.042-0.023,0.063-0.034l0.253-0.127c0.001-0.001,0.003-0.002,0.005-0.003l0,0l0,0
			c0.001,0,0.001-0.001,0.001-0.001c0.155-0.077,0.311-0.151,0.469-0.216c0,0,0.001-0.001,0.002-0.001c0,0,0,0,0.001,0
			c0.479-0.198,1.033,0.033,1.23,0.517c0.197,0.483-0.034,1.034-0.517,1.231c-0.117,0.048-0.23,0.103-0.343,0.16l-0.257,0.129
			C61.146,218.196,61.003,218.228,60.861,218.228z"/>
	</g>
	<g>
		<path d="M62.203,217.678c-0.395,0-0.763-0.249-0.895-0.643c-0.166-0.494,0.099-1.029,0.593-1.196l0.211-0.074
			c0.193-0.068,0.384-0.136,0.584-0.189c0.505-0.136,1.022,0.164,1.157,0.668c0.135,0.504-0.164,1.022-0.668,1.157l0,0l0,0
			c-0.003,0.001-0.006,0.002-0.008,0.002c-0.14,0.038-0.279,0.089-0.416,0.138l-0.256,0.09
			C62.403,217.663,62.303,217.678,62.203,217.678z"/>
	</g>
	<g>
		<path d="M71.332,218.301c-0.141,0-0.285-0.031-0.419-0.098l-0.131-0.065c-0.16-0.08-0.319-0.161-0.484-0.231
			c-0.48-0.205-0.702-0.759-0.498-1.239c0.205-0.481,0.762-0.701,1.238-0.499c0.001,0.001,0.001,0.001,0.002,0.001l0,0
			c0.001,0.001,0.002,0.001,0.002,0.001c0.198,0.085,0.392,0.18,0.584,0.278l0.128,0.064c0.332,0.166,0.525,0.499,0.524,0.847
			c0,0.141-0.031,0.284-0.098,0.418C72.014,218.11,71.679,218.301,71.332,218.301z"/>
	</g>
	<g>
		<path d="M75.239,221.417c-0.274,0-0.546-0.119-0.732-0.347c-0.001-0.001-0.046-0.058-0.047-0.059L74.3,220.82
			c-0.154-0.178-0.229-0.399-0.229-0.618c0-0.263,0.11-0.527,0.327-0.714c0.394-0.34,0.99-0.297,1.332,0.097
			c0.083,0.097,0.163,0.196,0.244,0.295c0.328,0.405,0.265,0.999-0.138,1.327C75.659,221.348,75.448,221.417,75.239,221.417z"/>
	</g>
	<g>
		<path d="M77.283,225.095c-0.392,0-0.758-0.245-0.892-0.636l-0.165-0.453c-0.189-0.486,0.051-1.032,0.536-1.222
			c0.483-0.191,1.032,0.049,1.222,0.534l0.059,0.155c0.002,0.004,0.003,0.007,0.005,0.01c0.024,0.063,0.047,0.127,0.069,0.19
			c0.082,0.14,0.129,0.303,0.129,0.478c0,0.52-0.42,0.942-0.94,0.944C77.298,225.095,77.29,225.095,77.283,225.095z"/>
	</g>
	<g>
		<path d="M74.329,220.424c-0.237,0-0.474-0.089-0.657-0.266l-0.256-0.248c-0.204-0.185-0.308-0.441-0.308-0.696
			c0-0.228,0.081-0.456,0.247-0.637c0.352-0.387,0.95-0.414,1.333-0.06c0.076,0.069,0.15,0.141,0.224,0.213l0.075,0.074
			c0.191,0.185,0.287,0.432,0.287,0.678c0,0.237-0.089,0.474-0.266,0.657C74.821,220.328,74.576,220.424,74.329,220.424z"/>
	</g>
	<g>
		<path d="M77.889,228.014c-0.487,0-0.901-0.374-0.94-0.869c-0.008-0.11-0.02-0.221-0.031-0.332l-0.001-0.001
			c-0.019-0.165-0.041-0.33-0.065-0.492c-0.079-0.516,0.275-0.997,0.789-1.076c0.516-0.077,0.998,0.274,1.077,0.788
			c0.029,0.191,0.056,0.381,0.076,0.57c0,0.001,0,0.002,0,0.002c0.008,0.065,0.014,0.13,0.02,0.195
			c0.025,0.085,0.039,0.176,0.039,0.269c0,0.522-0.422,0.944-0.944,0.944C77.903,228.013,77.894,228.014,77.889,228.014z"/>
	</g>
	<g>
		<path d="M73.32,219.545c-0.202,0-0.407-0.064-0.579-0.199l-0.3-0.231c-0.42-0.308-0.513-0.897-0.207-1.318
			c0.307-0.42,0.898-0.515,1.318-0.209c0.084,0.06,0.165,0.124,0.246,0.187c0.291,0.161,0.486,0.471,0.486,0.826
			c0,0.522-0.422,0.944-0.944,0.944C73.333,219.544,73.326,219.544,73.32,219.545z"/>
	</g>
	<g>
		<path d="M77.679,226.543c-0.438,0-0.832-0.307-0.924-0.753l-0.067-0.302c-0.026-0.111-0.056-0.222-0.085-0.333
			c-0.137-0.502,0.161-1.022,0.663-1.159c0.503-0.139,1.021,0.16,1.159,0.662c0.035,0.129,0.068,0.258,0.098,0.387
			c0.001,0.001,0.001,0.001,0.001,0.002c0.014,0.058,0.026,0.115,0.04,0.174c0.051,0.115,0.078,0.243,0.078,0.377
			c0,0.522-0.422,0.944-0.944,0.944C77.698,226.543,77.687,226.543,77.679,226.543z"/>
	</g>
	<g>
		<path d="M54.325,226.733c-0.059,0-0.116-0.006-0.176-0.017c-0.513-0.096-0.85-0.589-0.753-1.102
			c0.027-0.149,0.059-0.297,0.092-0.447c0-0.001,0.001-0.002,0.001-0.003c0.041-0.18,0.085-0.361,0.134-0.539
			c0.136-0.503,0.652-0.806,1.159-0.664c0.502,0.136,0.801,0.653,0.665,1.158c-0.001,0-0.001,0.001-0.001,0.001l0,0
			c0,0.001,0,0.002-0.001,0.003c-0.04,0.15-0.077,0.3-0.111,0.453c0,0,0,0.001-0.001,0.002c-0.028,0.128-0.055,0.256-0.079,0.385
			C55.167,226.417,54.771,226.733,54.325,226.733z"/>
	</g>
	<g>
		<path d="M54.675,225.344c-0.094,0-0.191-0.014-0.286-0.044c-0.497-0.158-0.771-0.688-0.614-1.185c0-0.001,0-0.001,0-0.001l0,0
			c0.001-0.002,0.001-0.004,0.002-0.006c0.096-0.302,0.203-0.601,0.321-0.893c0.194-0.483,0.743-0.719,1.227-0.525
			c0.483,0.195,0.719,0.743,0.526,1.227c0,0-0.001,0.001-0.001,0.002l0,0c0,0,0,0,0,0.001c-0.101,0.253-0.193,0.507-0.275,0.766
			C55.446,225.087,55.074,225.344,54.675,225.344z"/>
	</g>
	<g>
		<path d="M56.515,221.768c-0.198,0-0.398-0.061-0.569-0.191c-0.415-0.314-0.498-0.906-0.183-1.322v-0.001l0.098-0.127
			c0.005-0.007,0.01-0.013,0.015-0.02c0,0,0,0,0.001,0l0,0c0.002-0.003,0.004-0.006,0.007-0.008c0.128-0.161,0.262-0.315,0.398-0.47
			c0.342-0.394,0.956-0.452,1.347-0.111c0.394,0.342,0.452,0.92,0.11,1.313c-0.001,0-0.001,0.001-0.002,0.002l0,0
			c-0.001,0.001-0.003,0.003-0.004,0.004c-0.167,0.193-0.277,0.319-0.381,0.449c0,0.001-0.001,0.002-0.001,0.002l-0.083,0.107
			C57.082,221.639,56.8,221.768,56.515,221.768z"/>
	</g>
	<g>
		<path d="M58.519,219.702c-0.275,0-0.548-0.119-0.734-0.349c-0.329-0.404-0.267-0.999,0.138-1.328h0.001l0,0
			c0,0,0-0.001,0.001-0.001c0.208-0.169,0.421-0.328,0.64-0.482c0.427-0.301,1.015-0.201,1.317,0.225
			c0.3,0.425,0.201,1.014-0.225,1.316c-0.185,0.132-0.368,0.266-0.543,0.409C58.939,219.633,58.728,219.702,58.519,219.702z"/>
	</g>
	<g>
		<path d="M57.443,220.686c-0.235,0-0.471-0.088-0.653-0.263c-0.376-0.361-0.388-0.959-0.026-1.334
			c0.195-0.204,0.402-0.395,0.613-0.585c0,0,0-0.002,0.003-0.002c0.386-0.348,0.983-0.321,1.332,0.065
			c0.35,0.385,0.322,0.982-0.063,1.333c-0.176,0.16-0.351,0.318-0.516,0.49c-0.003,0.002-0.005,0.005-0.008,0.007c0,0,0,0,0,0.001
			C57.939,220.588,57.691,220.686,57.443,220.686z"/>
	</g>
	<g>
		<path d="M54.144,228.178c-0.02,0-0.041-0.001-0.06-0.002c-0.52-0.033-0.915-0.482-0.883-1.002
			c0.023-0.365,0.059-0.727,0.113-1.085c0.077-0.516,0.547-0.865,1.074-0.795c0.516,0.076,0.871,0.556,0.795,1.073
			c-0.045,0.305-0.076,0.615-0.097,0.928C55.053,227.793,54.637,228.178,54.144,228.178z"/>
	</g>
	<g>
		<path d="M67.649,240.773c-0.465,0-0.87-0.343-0.934-0.816c-0.071-0.516,0.29-0.992,0.806-1.063l0.082-0.013
			c0.132-0.021,0.262-0.051,0.395-0.079l0.251-0.054c0.507-0.103,1.007,0.224,1.113,0.735c0.105,0.51-0.223,1.008-0.733,1.115
			l-0.202,0.043c-0.172,0.038-0.343,0.075-0.516,0.103l0,0c-0.001,0-0.001,0-0.001,0c-0.008,0.001-0.017,0.003-0.024,0.004
			l-0.107,0.017C67.735,240.771,67.691,240.773,67.649,240.773z"/>
	</g>
	<g>
		<path d="M69.108,240.481c-0.416,0-0.799-0.279-0.911-0.7c-0.135-0.503,0.163-1.021,0.667-1.157
			c0.125-0.033,0.248-0.072,0.37-0.112c0,0,0.001,0,0.001-0.001c0.149-0.05,0.297-0.104,0.448-0.159l0.106-0.039
			c0.487-0.175,1.03,0.076,1.209,0.565c0.178,0.49-0.073,1.031-0.562,1.21c-0.216,0.079-0.407,0.149-0.6,0.214
			c-0.001,0-0.001,0-0.002,0.001c-0.161,0.054-0.321,0.103-0.482,0.146C69.27,240.47,69.188,240.481,69.108,240.481z"/>
	</g>
	<g>
		<path d="M70.518,240.006c-0.373,0-0.725-0.221-0.874-0.587c-0.197-0.483,0.035-1.035,0.517-1.231
			c0.245-0.099,0.482-0.223,0.721-0.345l0.12-0.061c0.465-0.235,1.033-0.052,1.27,0.414c0.237,0.464,0.053,1.033-0.412,1.27
			l-0.106,0.055c-0.286,0.146-0.573,0.293-0.873,0.415c-0.002,0.001-0.005,0.002-0.007,0.003l0,0
			C70.758,239.983,70.637,240.006,70.518,240.006z"/>
	</g>
	<g>
		<path d="M61.385,239.938c-0.124,0-0.248-0.024-0.369-0.075l-0.117-0.052c-0.007-0.003-0.014-0.007-0.02-0.009
			c-0.146-0.066-0.29-0.138-0.432-0.21l-0.122-0.06c-0.466-0.231-0.657-0.797-0.427-1.264c0.231-0.467,0.796-0.658,1.264-0.428
			l0.144,0.072c0.117,0.059,0.234,0.117,0.352,0.171l0.095,0.042c0.481,0.204,0.703,0.758,0.5,1.239
			C62.102,239.722,61.752,239.938,61.385,239.938z"/>
	</g>
	<g>
		<path d="M64.135,240.722c-0.05,0-0.1-0.004-0.151-0.012c-0.264-0.043-0.526-0.096-0.787-0.155l0,0
			c-0.001,0-0.002-0.001-0.003-0.001c-0.507-0.116-0.825-0.621-0.709-1.129c0.115-0.509,0.622-0.825,1.128-0.712
			c0.221,0.051,0.445,0.097,0.67,0.133c0.464,0.075,0.794,0.476,0.794,0.93c0,0.051-0.004,0.101-0.012,0.152
			C64.992,240.392,64.591,240.722,64.135,240.722z"/>
	</g>
	<g>
		<path d="M62.717,240.408c-0.087,0-0.175-0.012-0.262-0.037c-0.16-0.046-0.316-0.098-0.472-0.153
			c-0.002-0.001-0.004-0.002-0.007-0.003h-0.002c-0.001-0.001-0.003-0.001-0.004-0.002l-0.213-0.076
			c-0.492-0.175-0.755-0.717-0.581-1.208c0.175-0.491,0.707-0.752,1.198-0.576l0.224,0.079c0.001,0,0.002,0.001,0.003,0.001
			c0.126,0.043,0.252,0.086,0.381,0.124c0.499,0.146,0.787,0.669,0.642,1.17C63.504,240.14,63.127,240.408,62.717,240.408z"/>
	</g>
	<g>
		<path d="M59.056,238.626c-0.191,0-0.383-0.059-0.55-0.178c-0.002-0.001-0.003-0.002-0.004-0.003l0,0l0,0
			c-0.093-0.066-0.179-0.136-0.268-0.205l-0.075-0.059c-0.412-0.321-0.484-0.914-0.163-1.325c0.316-0.405,0.894-0.482,1.306-0.178
			l0,0c0.001,0,0.001,0.001,0.002,0.001c0,0,0.003-0.001,0.002,0.002h0.001c0,0.001,0.001,0.001,0.001,0.001
			c0,0.001,0.001,0.001,0.001,0.001c0.001,0,0.001,0.001,0.001,0.001c0.001,0,0.001,0.001,0.001,0.001
			c0.001,0-0.001-0.002,0.003,0.002c0,0-0.002,0.001,0.002,0.001c0,0,0,0.001,0.001,0.001l0.001,0.001c0,0,0.001,0,0.001,0.001
			c0,0,0.001,0.001,0.002,0.001c0.001,0.001,0.001,0.001,0.002,0.002c0,0,0,0,0.001,0c0.007,0.006,0.075,0.059,0.076,0.059
			c0.04,0.031,0.079,0.062,0.12,0.094c0.299,0.158,0.502,0.472,0.502,0.835c0,0.522-0.422,0.944-0.944,0.944
			C59.07,238.625,59.063,238.625,59.056,238.626z"/>
	</g>
	<g>
		<path d="M54.259,230.793c-0.456,0-0.858-0.332-0.931-0.797c-0.001-0.001-0.001-0.001-0.001-0.002l0,0v-0.001
			c-0.031-0.201-0.059-0.401-0.08-0.602c0-0.001,0-0.001-0.001-0.002l0,0c0-0.001,0-0.001,0-0.001c0-0.008-0.001-0.015-0.002-0.023
			l-0.026-0.278c-0.044-0.519,0.341-0.975,0.86-1.02c0.529-0.058,0.976,0.34,1.021,0.86l0.025,0.255
			c0.02,0.175,0.043,0.347,0.07,0.52c0.08,0.515-0.272,0.998-0.787,1.079C54.357,230.789,54.308,230.793,54.259,230.793z"/>
	</g>
	<g>
		<path d="M54.946,233.324c-0.376,0-0.732-0.227-0.879-0.599c-0.042-0.107-0.082-0.214-0.121-0.322
			c-0.001-0.001-0.001-0.002-0.002-0.003v-0.002c-0.001-0.004-0.003-0.007-0.004-0.009l-0.06-0.174
			c-0.172-0.492,0.09-1.03,0.582-1.201c0.491-0.171,1.03,0.089,1.201,0.581l0.162,0.441c0.189,0.485-0.05,1.032-0.534,1.222
			C55.177,233.302,55.061,233.324,54.946,233.324z"/>
	</g>
	<g>
		<path d="M58.004,237.77c-0.228,0-0.455-0.081-0.636-0.246c-0.076-0.069-0.148-0.141-0.222-0.212l-0.074-0.073
			c-0.191-0.185-0.287-0.431-0.287-0.678c0-0.237,0.089-0.474,0.266-0.657c0.364-0.374,0.961-0.382,1.335-0.02l0.254,0.245
			c0.204,0.186,0.308,0.441,0.308,0.697c0,0.228-0.081,0.455-0.246,0.637C58.516,237.666,58.26,237.77,58.004,237.77z"/>
	</g>
	<g>
		<path d="M57.044,236.785c-0.261,0-0.52-0.108-0.707-0.318c-0.069-0.079-0.137-0.161-0.202-0.243
			c-0.003-0.003-0.005-0.006-0.008-0.008c0,0,0,0,0-0.001c-0.33-0.404-0.291-1.024,0.113-1.353c0.403-0.33,0.973-0.296,1.303,0.102
			l0,0c0,0.001,0.001,0.001,0.001,0.001c0,0.001,0.001,0.001,0.001,0.001v0.002c0.001,0.001,0.002,0.002,0.003,0.003l0.124,0.148
			c0.205,0.174,0.334,0.432,0.334,0.722c0,0.525-0.408,0.911-0.953,0.944C57.05,236.785,57.047,236.785,57.044,236.785z"/>
	</g>
	<g>
		<path d="M54.53,232.071c-0.415,0-0.796-0.276-0.91-0.695c-0.032-0.12-0.062-0.24-0.093-0.359
			c-0.028-0.119-0.057-0.238-0.081-0.358c-0.105-0.51,0.221-1.008,0.73-1.116c0.511-0.106,1.009,0.217,1.118,0.727l0.148,0.613
			c0.135,0.502-0.163,1.019-0.666,1.156C54.695,232.06,54.612,232.071,54.53,232.071z"/>
	</g>
	<g>
		<path d="M72.937,238.657c-0.295,0-0.585-0.138-0.77-0.396c-0.302-0.425-0.204-1.014,0.22-1.317l0.183-0.133
			c0.124-0.091,0.245-0.182,0.363-0.278c0.406-0.329,1.001-0.262,1.327,0.141c0.328,0.405,0.265,0.999-0.139,1.327
			c-0.141,0.115-0.287,0.225-0.434,0.333c-0.003,0.003-0.007,0.005-0.01,0.008l-0.193,0.139
			C73.319,238.601,73.127,238.657,72.937,238.657z"/>
	</g>
	<g>
		<path d="M77.789,230.794c-0.048,0-0.096-0.004-0.144-0.011c-0.516-0.079-0.869-0.562-0.789-1.077
			c0.05-0.327,0.084-0.654,0.105-0.986c0.033-0.521,0.474-0.902,1.003-0.882c0.52,0.033,0.915,0.482,0.882,1.003v0.001l0,0
			c0,0.001,0,0.002,0,0.003c-0.025,0.388-0.065,0.771-0.124,1.15C78.649,230.461,78.247,230.794,77.789,230.794z"/>
	</g>
	<g>
		<path d="M75.026,236.712c-0.215,0-0.428-0.07-0.598-0.216c-0.394-0.341-0.465-0.904-0.126-1.297l0.082-0.095
			c0.135-0.155,0.269-0.31,0.393-0.474c0.315-0.414,0.906-0.499,1.322-0.185c0.416,0.314,0.499,0.905,0.186,1.322
			c0,0,0,0-0.001,0.001l0,0c0,0-0.001,0.001-0.001,0.002c-0.156,0.206-0.326,0.403-0.496,0.6c-0.004,0.004-0.008,0.008-0.01,0.011
			l-0.046,0.053l-0.003-0.002C75.539,236.613,75.282,236.712,75.026,236.712z"/>
	</g>
	<g>
		<path d="M77.049,233.46c-0.119,0-0.239-0.022-0.355-0.069c-0.483-0.196-0.716-0.746-0.52-1.229
			c0.111-0.278,0.214-0.558,0.303-0.842c0.155-0.498,0.682-0.778,1.183-0.618c0.497,0.156,0.774,0.685,0.618,1.182
			c0,0.001,0,0.001,0,0.001l0,0c-0.001,0.003-0.001,0.005-0.002,0.007c-0.104,0.332-0.222,0.659-0.353,0.979l0,0
			c0,0.001,0,0.002-0.001,0.002C77.774,233.239,77.421,233.46,77.049,233.46z"/>
	</g>
	<g>
		<path d="M75.874,235.639c-0.182,0-0.366-0.053-0.529-0.162c-0.403-0.274-0.529-0.803-0.305-1.223l0,0
			c0.001-0.001,0.001-0.001,0.002-0.002v-0.001c0,0,0.001-0.001,0.001-0.002c0.001,0-0.001,0.001,0.002-0.003l0,0
			c0-0.001,0.001-0.002,0.001-0.003l0,0c0.001-0.001,0.001-0.002,0.002-0.003l0,0c0.001-0.001,0.002-0.004,0.002-0.003
			c0-0.001,0.001-0.002,0.001-0.002c0-0.001,0-0.001,0-0.001c0.001-0.001,0.001-0.001,0.002-0.002v-0.001
			c0-0.001,0.001-0.001,0.001-0.002c0,0,0-0.001,0.001-0.001c0,0,0-0.001,0.001-0.002c0,0,0.001,0,0.001-0.003
			c0.001,0,0.001,0,0.001,0c0-0.001,0.001-0.002,0.001-0.003l0,0c0.001-0.002,0.002-0.002,0.002-0.003
			c0.001-0.001,0.001-0.001,0.001-0.002l0.001-0.001c0-0.001,0.001-0.001,0.001-0.002c0,0-0.002,0.001,0.002-0.003l0,0
			c0-0.001,0.001-0.002,0.001-0.003h0.001c0-0.001,0.001-0.002,0.001-0.002c0-0.001,0-0.001,0-0.001
			c0.001-0.001,0.001-0.001,0.002-0.002v-0.001c0.002,0,0.001-0.003,0.002-0.002c0-0.001,0.001-0.002,0.001-0.003l0,0
			c0.001-0.001,0.001-0.002,0.002-0.003l0,0c0.001-0.001,0.001-0.002,0.002-0.002v-0.001c0,0,0.001-0.001,0.001-0.002l0,0
			c0.001-0.001,0.002-0.002,0.002-0.003l0,0c0.005-0.008,0.01-0.015,0.015-0.023l0,0h0.001l0,0l0,0
			c0.001-0.001,0.002-0.003,0.002-0.003c0-0.001,0-0.001,0-0.001h0.001l0,0c0.001-0.002,0.002-0.004,0.004-0.006l0.1-0.147
			c0.111-0.163,0.225-0.326,0.325-0.498l0,0c0.002-0.003,0.003-0.005,0.005-0.008l0,0c0.001-0.003,0.002-0.005,0.003-0.006
			c0.262-0.449,0.838-0.601,1.289-0.34c0.45,0.261,0.604,0.838,0.344,1.288c-0.001,0.002-0.002,0.004-0.003,0.006
			c0,0.001-0.001,0.001-0.001,0.001l-0.084,0.153c-0.091,0.15-0.192,0.295-0.295,0.439l-0.126,0.178
			c0,0.001-0.001,0.001-0.001,0.002C76.473,235.493,76.176,235.639,75.874,235.639z"/>
	</g>
	<g>
		<path d="M76.367,234.861c-0.156,0-0.313-0.039-0.455-0.121c-0.448-0.256-0.616-0.805-0.371-1.256l0,0l0.009-0.017l0,0l0,0
			c0.174-0.305,0.326-0.623,0.47-0.945c0.212-0.475,0.767-0.689,1.246-0.476c0.476,0.213,0.688,0.77,0.477,1.246l-0.058,0.138
			c-0.042,0.104-0.084,0.209-0.134,0.309c-0.108,0.217-0.226,0.425-0.345,0.633c-0.002,0.004-0.004,0.008-0.006,0.01
			c-0.004,0.008-0.008,0.014-0.012,0.021v-0.001c-0.001,0.001-0.001,0.001-0.001,0.001l0.001,0.001l-0.001-0.001
			C77.009,234.694,76.691,234.861,76.367,234.861z"/>
	</g>
	<g>
		<path d="M77.495,232.152c-0.085,0-0.17-0.011-0.255-0.035c-0.502-0.14-0.796-0.66-0.655-1.162c0,0,0,0,0-0.001l0,0
			c0-0.001,0-0.002,0.001-0.003c0.059-0.212,0.111-0.427,0.158-0.645c0.001-0.007,0.003-0.012,0.004-0.019l0.049-0.244
			c0.096-0.512,0.584-0.848,1.102-0.753c0.513,0.096,0.85,0.589,0.753,1.102l-0.052,0.263c-0.002,0.007-0.003,0.014-0.005,0.02
			c0,0,0,0,0,0.001l0,0c0,0.001,0,0.002-0.001,0.004c-0.056,0.262-0.118,0.523-0.191,0.782
			C78.287,231.879,77.908,232.152,77.495,232.152z"/>
	</g>
	<g>
		<path d="M74.098,237.711c-0.256,0-0.512-0.103-0.698-0.308c-0.333-0.365-0.326-0.919,0.003-1.275l-0.003-0.003l0.002-0.002
			c0,0,0-0.001,0.001-0.001c0.006-0.006,0.02-0.018,0.02-0.018c0.007-0.007,0.014-0.013,0.02-0.019
			c0.007-0.007,0.013-0.012,0.02-0.019c0.157-0.143,0.313-0.286,0.461-0.44c0.361-0.375,0.957-0.389,1.334-0.026
			c0.375,0.361,0.389,0.957,0.028,1.334c-0.176,0.183-0.363,0.356-0.552,0.53C74.552,237.63,74.324,237.711,74.098,237.711z"/>
	</g>
	<g>
		<path fill="none" d="M76.348,233.975c0.005-0.008,0.008-0.016,0.013-0.023C76.355,233.96,76.353,233.968,76.348,233.975z"/>
	</g>
	<g>
		<path d="M57.026,221.157c-0.218,0-0.438-0.075-0.616-0.229c-0.396-0.34-0.44-0.936-0.099-1.331l0.06-0.071l0,0l0,0
			c0.004-0.004,0.007-0.008,0.01-0.012l0,0c0.126-0.145,0.25-0.292,0.384-0.43c0.363-0.374,0.959-0.383,1.334-0.021
			c0.374,0.362,0.384,0.959,0.023,1.334c-0.111,0.115-0.215,0.237-0.318,0.358l0,0l-0.063,0.074
			C57.553,221.045,57.29,221.157,57.026,221.157z"/>
	</g>
	<g>
		<path d="M59.127,219.239c-0.295,0-0.585-0.134-0.768-0.389c-0.254-0.354-0.236-0.817,0.023-1.137
			c-0.505-2.071-1.839-3.819-3.719-4.851c-1.402-0.77-3.276-1.16-5.568-1.16l-0.327,0.003c-0.28,0.002-0.501-0.097-0.683-0.277
			c-0.18-0.18-0.28-0.427-0.277-0.683c0.079-5.036,1.826-9.634,1.9-9.826c0.166-0.432,0.619-0.674,1.069-0.587
			c0.202,0.042,4.994,1.026,9.317,3.368c0.226,0.122,0.392,0.331,0.46,0.578s0.033,0.512-0.098,0.733
			c-1.339,2.26-2.018,4.39-2.018,6.331c0,1.914,0.7,3.705,1.983,5.106c0.462-0.194,0.995,0.002,1.216,0.452
			c0.229,0.468,0.038,1.034-0.431,1.264v-0.001l-0.001,0.001l0,0c-0.01,0.006-0.02,0.01-0.031,0.016l-0.003,0.001l-0.22,0.104
			c-0.097,0.045-0.194,0.091-0.289,0.139c-0.005,0.001-0.008,0.004-0.008,0.004l-0.127,0.068c-0.296,0.171-0.568,0.367-0.84,0.562
			c-0.004,0.003-0.008,0.005-0.011,0.008c-0.005,0.004-0.01,0.008-0.016,0.011l0,0c-0.001,0-0.001,0.001-0.002,0.001v0.001v-0.001
			C59.499,219.186,59.313,219.239,59.127,219.239z M49.733,209.822c2.331,0.071,4.292,0.535,5.838,1.383
			c0.347,0.19,0.678,0.399,0.993,0.627c-0.008-0.163-0.013-0.327-0.013-0.491c0-2.023,0.602-4.18,1.791-6.422
			c-2.828-1.394-5.763-2.212-7.139-2.551C50.766,203.712,49.923,206.643,49.733,209.822z"/>
	</g>
	<g>
		<path d="M56.15,222.3c-0.181,0-0.365-0.052-0.527-0.161c-0.27-0.181-0.416-0.48-0.416-0.782c0-0.182,0.052-0.366,0.161-0.529
			l0.093-0.138c0.097-0.148,0.195-0.295,0.302-0.437c0.313-0.414,0.905-0.499,1.322-0.182c0.415,0.314,0.498,0.905,0.184,1.321
			c-0.084,0.111-0.16,0.227-0.235,0.341l-0.1,0.15C56.753,222.155,56.453,222.3,56.15,222.3z"/>
	</g>
	<g>
		<path d="M61.525,217.91c-0.372,0-0.724-0.22-0.873-0.585c-0.198-0.482,0.032-1.034,0.514-1.232
			c0.079-0.032,0.16-0.062,0.242-0.091c0.01-0.004,0.02-0.008,0.03-0.011l0.462-0.151c0.493-0.166,1.029,0.097,1.197,0.59
			c0.168,0.492-0.095,1.028-0.587,1.198l-0.626,0.212C61.766,217.888,61.644,217.91,61.525,217.91z"/>
	</g>
	<g>
		<path d="M62.937,217.434c-0.416,0-0.799-0.279-0.911-0.701c-0.135-0.503,0.164-1.021,0.668-1.156l0.001-0.001l0.149-0.037
			c0.009-0.003,0.02-0.005,0.028-0.008c0.18-0.042,0.362-0.075,0.543-0.108l0.202-0.037c0.512-0.093,1.006,0.239,1.104,0.75
			c0.098,0.512-0.237,1.006-0.749,1.105l-0.239,0.045c-0.145,0.025-0.292,0.053-0.434,0.085c0,0.001-0.001,0.001-0.001,0.001
			l-0.119,0.029C63.1,217.423,63.019,217.434,62.937,217.434z"/>
	</g>
	<g>
		<path d="M58.012,220.144c-0.256,0-0.511-0.103-0.697-0.307c-0.351-0.384-0.325-0.981,0.059-1.333
			c0.146-0.134,0.294-0.266,0.446-0.394c0.003-0.002,0.006-0.005,0.008-0.007l0,0c0.004-0.004,0.008-0.007,0.011-0.009l0.086-0.071
			c0.405-0.328,1-0.263,1.328,0.139c0.329,0.406,0.265,1-0.139,1.328l-0.074,0.059l0,0c-0.134,0.111-0.262,0.229-0.391,0.347
			C58.467,220.063,58.239,220.144,58.012,220.144z"/>
	</g>
	<g>
		<path d="M64.399,217.14c-0.465,0-0.871-0.343-0.935-0.817c-0.07-0.516,0.292-0.991,0.807-1.062
			c0.123-0.018,0.247-0.029,0.374-0.04l0,0c0.139-0.01,0.279-0.019,0.417-0.025l0.183-0.01c0.545-0.015,0.966,0.366,0.998,0.886
			c0.032,0.519-0.365,0.967-0.886,0.999l-0.57,0.033c-0.087,0.008-0.174,0.016-0.26,0.026c0,0,0.001,0.001-0.003,0.001
			C64.484,217.137,64.44,217.14,64.399,217.14z"/>
	</g>
	<g>
		<path d="M72.991,219.295c-0.09,0-0.178-0.013-0.264-0.039c-0.098-0.029-0.195-0.076-0.283-0.139
			c-0.003-0.002-0.006-0.005-0.008-0.007c0,0-0.001,0-0.001-0.001c-0.445-0.321-0.943-0.618-1.524-0.908
			c-0.465-0.234-0.654-0.802-0.421-1.267c0.215-0.428,0.71-0.618,1.149-0.472c1.291-1.403,1.995-3.2,1.995-5.12
			c0-1.926-0.809-4.175-2.408-6.684c-0.279-0.438-0.152-1.018,0.283-1.3c4.369-2.828,9.461-3.896,9.675-3.94
			c0.445-0.091,0.903,0.152,1.071,0.583c0.08,0.209,1.984,5.16,2.23,10.288c0.012,0.253-0.077,0.499-0.249,0.685
			c-0.173,0.186-0.412,0.296-0.664,0.303c-2.651,0.086-4.833,0.667-6.488,1.727c-1.706,1.093-2.896,2.824-3.322,4.803
			c0.211,0.302,0.233,0.711,0.033,1.036v0.001c-0.001,0-0.001,0.001-0.002,0.002l0,0c-0.001,0.001-0.001,0.002-0.002,0.003l0,0
			c0,0.001-0.001,0.002-0.001,0.002c0,0.001-0.001,0.001-0.001,0.001c0,0.001-0.001,0.001-0.001,0.002v0.001
			c-0.001,0-0.001,0.001-0.002,0.002c0,0-0.001-0.001-0.001,0.003c-0.001,0-0.001,0-0.001,0c0,0.001-0.001,0.002-0.001,0.002
			c0,0.001-0.001,0.001-0.001,0.001c0,0.001-0.001,0.001-0.001,0.002c0,0,0,0.001-0.001,0.001c0,0,0,0.001-0.001,0.002l-0.001,0.002
			c-0.001,0.001-0.001,0.001-0.001,0.001c-0.001,0.001-0.001,0.001-0.001,0.002l-0.001,0.001c0,0.001-0.001,0.001-0.001,0.002
			l-0.001,0.001l-0.001,0.001c0,0.001,0,0.001-0.001,0.002c0,0,0.002,0.002-0.002,0.002c0,0.001-0.001,0.003-0.001,0.003
			c-0.001,0.001-0.002,0-0.002,0.003c-0.001,0-0.001,0.001-0.001,0.001c-0.001,0.001-0.001,0.001-0.001,0.002l-0.001,0.001
			l-0.001,0.001c0,0.001-0.001,0.001-0.001,0.002l-0.001,0.001l-0.001,0.001c0,0.001-0.001,0.001-0.001,0.002
			c0,0,0.002,0.001-0.002,0.002c0,0.001,0,0.001-0.001,0.002c0,0,0,0.001-0.001,0.001c0,0,0,0,0,0.001
			C73.573,219.157,73.285,219.295,72.991,219.295z M73.318,204.461c1.464,2.501,2.204,4.814,2.204,6.88
			c0,0.152-0.004,0.304-0.011,0.456c0.179-0.135,0.364-0.262,0.554-0.384c1.73-1.108,3.903-1.77,6.47-1.971
			c-0.298-3.355-1.278-6.558-1.764-7.984C79.339,201.831,76.209,202.767,73.318,204.461z"/>
	</g>
	<g>
		<path d="M74.051,220.156c-0.228,0-0.455-0.082-0.637-0.247c-0.214-0.195-0.437-0.379-0.666-0.557
			c-0.003-0.002-0.006-0.005-0.008-0.007l0,0c-0.412-0.321-0.485-0.914-0.165-1.325c0.321-0.412,0.914-0.488,1.325-0.165
			c0.231,0.179,0.459,0.365,0.68,0.562c0.262,0.168,0.434,0.461,0.434,0.795c0,0.522-0.422,0.944-0.944,0.944
			C74.067,220.157,74.059,220.157,74.051,220.156z"/>
	</g>
	<g>
		<path d="M67.92,217.195c-0.051,0-0.101-0.004-0.153-0.012c0,0,0,0-0.001,0l0,0c-0.003-0.001-0.006-0.002-0.008-0.002
			c-0.201-0.032-0.402-0.059-0.604-0.08c-0.517-0.056-0.892-0.52-0.838-1.039c0.054-0.516,0.511-0.881,1.036-0.84
			c0.243,0.025,0.482,0.058,0.72,0.096c0.515,0.085,0.863,0.57,0.779,1.084C68.774,216.865,68.374,217.195,67.92,217.195z"/>
	</g>
	<g>
		<path d="M70.668,217.981c-0.124,0-0.248-0.024-0.368-0.075l-0.612-0.227c-0.491-0.175-0.747-0.714-0.572-1.204
			c0.175-0.492,0.712-0.746,1.204-0.575l0.093,0.033c0.137,0.048,0.273,0.096,0.408,0.147c0.002,0.001,0.004,0.001,0.005,0.002
			h0.001l0,0c0.01,0.004,0.02,0.008,0.029,0.012l0.182,0.074c0.48,0.204,0.702,0.758,0.499,1.238
			C71.385,217.765,71.036,217.981,70.668,217.981z"/>
	</g>
	<g>
		<path d="M75.867,222.257c-0.302,0-0.599-0.144-0.782-0.414c-0.182-0.268-0.376-0.526-0.579-0.773
			c-0.33-0.404-0.268-0.999,0.136-1.328s0.999-0.269,1.328,0.135c0,0.001,0.001,0.001,0.001,0.001l0,0l0,0
			c0.238,0.293,0.464,0.591,0.675,0.903c0.001,0.001,0.001,0.001,0.002,0.002v0.001c0.294,0.432,0.18,1.018-0.251,1.311
			C76.234,222.204,76.049,222.257,75.867,222.257z"/>
	</g>
	<g>
		<path d="M75.015,221.146c-0.264,0-0.528-0.11-0.714-0.327c-0.202-0.233-0.415-0.452-0.633-0.667
			c-0.372-0.364-0.378-0.962-0.014-1.334c0.366-0.372,0.962-0.379,1.335-0.016c0.255,0.25,0.5,0.505,0.734,0.775
			c0.002,0.002,0.004,0.004,0.005,0.006c0.001,0,0.001,0,0.001,0c0.34,0.395,0.297,0.991-0.097,1.332
			C75.453,221.071,75.234,221.146,75.015,221.146z"/>
	</g>
	<g>
		<path d="M69.335,217.51c-0.087,0-0.175-0.012-0.262-0.037c-0.168-0.049-0.337-0.09-0.508-0.129l-0.128-0.029
			c-0.508-0.115-0.826-0.621-0.71-1.129c0.115-0.509,0.615-0.828,1.129-0.712l0.131,0.03c0.001,0,0.002,0,0.003,0.001
			c0.177,0.041,0.351,0.082,0.525,0.131c0.446,0.076,0.783,0.464,0.783,0.93c0,0.52-0.42,0.942-0.94,0.944
			C69.35,217.51,69.343,217.51,69.335,217.51z"/>
	</g>
	<g>
		<path d="M71.836,218.543c-0.158,0-0.315-0.039-0.459-0.119c-0.076-0.042-0.156-0.077-0.234-0.113l-0.366-0.178
			c-0.159-0.079-0.315-0.16-0.478-0.228c-0.154-0.065-0.312-0.121-0.469-0.177l-0.142-0.051c-0.235-0.084-0.423-0.151-0.615-0.207
			c-0.21-0.06-0.421-0.11-0.635-0.158c-0.221-0.05-0.445-0.097-0.67-0.133c-0.203-0.033-0.406-0.06-0.61-0.081
			c-0.491-0.052-1.02-0.098-1.522-0.052l-0.499,0.034c-0.205,0.01-0.409,0.02-0.608,0.047c-0.101,0.015-0.202,0.037-0.303,0.059
			l-0.49,0.097c-0.186,0.033-0.373,0.066-0.553,0.114c-0.142,0.039-0.282,0.09-0.423,0.139l-0.5,0.17
			c-0.127,0.04-0.253,0.079-0.374,0.129c-0.161,0.065-0.315,0.144-0.469,0.222l-0.453,0.218c-0.094,0.043-0.189,0.085-0.279,0.135
			c-0.359,0.198-0.802,0.144-1.102-0.134c-1.925-1.792-3.03-4.322-3.03-6.939c0-2.284,0.767-4.739,2.281-7.294
			c2.585-4.369,6.445-7.524,6.608-7.656c0.358-0.292,0.874-0.279,1.221,0.025c0.145,0.129,3.598,3.206,6.157,7.225
			c1.793,2.817,2.702,5.408,2.702,7.698c0,2.623-1.109,5.156-3.043,6.949C72.3,218.458,72.069,218.543,71.836,218.543z
			 M66.022,215.137c0.473,0,0.935,0.044,1.33,0.086c0.242,0.025,0.482,0.057,0.719,0.095c0.261,0.043,0.523,0.096,0.783,0.155
			c0.251,0.058,0.498,0.115,0.742,0.185c0.229,0.066,0.454,0.145,0.68,0.227l0.18,0.063c0.195,0.069,0.391,0.138,0.581,0.219
			c0.198,0.084,0.393,0.18,0.587,0.279l0.018,0.009c1.288-1.402,1.989-3.196,1.989-5.114c0-1.926-0.809-4.175-2.408-6.684
			c-1.799-2.826-4.131-5.217-5.214-6.262c-1.166,1.05-3.736,3.543-5.555,6.615c-1.339,2.26-2.018,4.39-2.018,6.331
			c0,1.913,0.699,3.704,1.982,5.105l0.144-0.072c0.2-0.101,0.4-0.201,0.605-0.284c0.165-0.068,0.339-0.126,0.515-0.18l0.443-0.15
			c0.188-0.066,0.377-0.133,0.568-0.183c0.23-0.061,0.466-0.106,0.702-0.148l0.427-0.084c0.149-0.032,0.298-0.063,0.448-0.085
			c0.25-0.034,0.507-0.049,0.764-0.062l0.435-0.029C65.653,215.152,65.836,215.137,66.022,215.137z"/>
	</g>
	<g>
		<path d="M55.355,234.243c-0.347,0-0.683-0.193-0.847-0.525v-0.002l-0.137-0.284c-0.004-0.008-0.007-0.014-0.01-0.021
			c0,0,0,0,0-0.001l0,0c-0.001-0.001-0.001-0.001-0.002-0.002c-0.103-0.224-0.201-0.45-0.293-0.682c0-0.001,0-0.001,0-0.001
			c0-0.001-0.001-0.002-0.001-0.002c-0.191-0.485,0.048-1.033,0.532-1.225c0.486-0.188,1.033,0.047,1.225,0.531
			c0.077,0.196,0.161,0.391,0.251,0.584l0.059,0.121c0.117,0.157,0.185,0.351,0.185,0.563
			C56.318,233.827,55.895,234.231,55.355,234.243z"/>
	</g>
	<g>
		<path d="M54.771,232.851c-0.391,0-0.757-0.245-0.892-0.635v-0.001l-0.067-0.2c-0.002-0.006-0.004-0.011-0.006-0.017
			c-0.067-0.207-0.129-0.415-0.186-0.627c-0.135-0.502,0.163-1.021,0.666-1.157c0.505-0.135,1.022,0.161,1.158,0.665
			c0.049,0.178,0.101,0.356,0.159,0.532c0,0.001,0,0.001,0,0.001l0.008,0.025c0.079,0.138,0.125,0.298,0.125,0.469
			c0,0.52-0.42,0.942-0.94,0.944C54.786,232.851,54.778,232.851,54.771,232.851z"/>
	</g>
	<g>
		<path d="M54.371,231.411c-0.437,0-0.829-0.305-0.923-0.75c-0.033-0.159-0.062-0.318-0.09-0.477l0,0v-0.001c0,0,0,0-0.001,0
			c0-0.004-0.001-0.008-0.001-0.011l-0.029-0.178c-0.08-0.515,0.272-0.997,0.787-1.078c0.518-0.077,0.997,0.272,1.079,0.787
			l0.026,0.167c0.013,0.078,0.026,0.156,0.042,0.233c0.047,0.111,0.073,0.235,0.073,0.364c0,0.522-0.422,0.944-0.944,0.944
			C54.391,231.41,54.378,231.411,54.371,231.411z"/>
	</g>
	<g>
		<path d="M41.987,235.581c-0.163,0-0.325-0.042-0.468-0.125c-4.362-2.493-7.543-6.214-7.677-6.371
			c-0.298-0.352-0.298-0.869,0-1.221c0.138-0.163,3.434-4.026,7.683-6.695c0.215-0.134,0.472-0.178,0.722-0.119
			c0.247,0.059,0.459,0.215,0.59,0.432c1.32,2.198,2.841,3.779,4.518,4.699c1.829,1.003,4.039,1.203,6.003,0.561
			c0.183-0.274,0.498-0.444,0.845-0.427c0.52,0.035,0.917,0.459,0.883,0.979c-0.032,0.492-0.032,0.98-0.001,1.455
			c0.024,0.082,0.036,0.17,0.036,0.259c0,0.522-0.422,0.944-0.944,0.944c-0.007,0-0.015,0-0.02,0c-0.346,0-0.655-0.189-0.82-0.477
			c-2.167-0.748-4.632-0.467-6.578,0.781c-1.45,0.929-2.773,2.547-3.932,4.811c-0.117,0.229-0.324,0.401-0.57,0.474
			C42.168,235.569,42.078,235.581,41.987,235.581z M35.833,228.471c0.965,1.026,3.116,3.156,5.794,4.848
			c1.204-2.109,2.585-3.672,4.112-4.651c0.362-0.231,0.736-0.437,1.121-0.617c-0.139-0.067-0.277-0.138-0.414-0.213
			c-1.749-0.959-3.327-2.489-4.703-4.553C39.06,225.119,36.825,227.398,35.833,228.471z"/>
	</g>
	<g>
		<path d="M54.973,224.511c-0.117,0-0.236-0.021-0.351-0.068c-0.484-0.194-0.719-0.743-0.526-1.227
			c0.07-0.175,0.142-0.345,0.218-0.515c0.214-0.476,0.773-0.686,1.248-0.474c0.35,0.158,0.557,0.501,0.557,0.862
			c0,0.129-0.026,0.261-0.083,0.386c-0.066,0.146-0.128,0.295-0.188,0.443C55.7,224.288,55.346,224.511,54.973,224.511z"/>
	</g>
	<g>
		<path d="M54.535,225.818c-0.083,0-0.168-0.011-0.252-0.034c-0.501-0.138-0.798-0.656-0.66-1.159
			c0.047-0.171,0.097-0.34,0.151-0.509c0.156-0.497,0.688-0.774,1.184-0.616c0.403,0.127,0.66,0.499,0.66,0.899
			c0,0.095-0.014,0.191-0.044,0.285c-0.046,0.147-0.09,0.294-0.13,0.443C55.328,225.544,54.948,225.818,54.535,225.818z"/>
	</g>
	<g>
		<path d="M54.249,227.172c-0.046,0-0.094-0.004-0.141-0.01c-0.516-0.078-0.871-0.559-0.794-1.075v-0.001l0,0
			c0.001-0.003,0.001-0.005,0.002-0.008c0.023-0.157,0.052-0.312,0.081-0.466c0.097-0.512,0.584-0.849,1.104-0.752
			c0.452,0.086,0.768,0.482,0.768,0.926c0,0.059-0.006,0.117-0.017,0.178c-0.025,0.134-0.05,0.269-0.07,0.404
			C55.111,226.837,54.709,227.172,54.249,227.172z"/>
	</g>
	<g>
		<path d="M50.995,229.007L50.995,229.007c-1.582,0-3.155-0.404-4.548-1.168c-1.974-1.083-3.734-2.894-5.229-5.383
			c-2.644-4.399-3.563-9.394-3.601-9.605c-0.081-0.452,0.177-0.899,0.61-1.055c0.215-0.077,5.322-1.897,10.513-1.979l0.356-0.003
			c2.614,0,4.792,0.468,6.476,1.393c2.545,1.396,4.288,3.842,4.781,6.71c0.063,0.37-0.097,0.741-0.41,0.948
			c-0.04,0.025-0.076,0.057-0.111,0.085c-0.058,0.045-0.114,0.09-0.173,0.132c-0.188,0.133-0.371,0.267-0.546,0.41
			c-0.161,0.13-0.313,0.268-0.465,0.408c-0.181,0.164-0.359,0.325-0.525,0.497c-0.11,0.113-0.209,0.23-0.308,0.347l-0.075,0.087
			c-0.203,0.233-0.344,0.395-0.472,0.565c-0.083,0.11-0.158,0.224-0.232,0.337l-0.102,0.153c-0.356,0.529-0.657,1.065-0.898,1.596
			c-0.064,0.143-0.127,0.29-0.186,0.438c-0.101,0.254-0.194,0.509-0.276,0.768c-0.046,0.145-0.09,0.292-0.13,0.441
			c-0.075,0.273-0.138,0.554-0.192,0.838c-0.025,0.135-0.05,0.268-0.07,0.404c-0.046,0.306-0.077,0.614-0.097,0.924
			c-0.005,0.063-0.011,0.12-0.019,0.178c-0.018,0.374-0.258,0.749-0.607,0.885C53.349,228.787,52.184,229.007,50.995,229.007z
			 M39.647,213.314c0.363,1.547,1.327,5.067,3.19,8.168c1.32,2.198,2.841,3.779,4.518,4.699c1.788,0.981,3.946,1.193,5.876,0.601
			c0.023-0.24,0.05-0.467,0.084-0.695c0.024-0.16,0.054-0.317,0.083-0.475c0.062-0.331,0.138-0.66,0.226-0.987
			c0.049-0.176,0.098-0.343,0.151-0.511c0.097-0.305,0.204-0.603,0.322-0.899c0.07-0.175,0.142-0.345,0.218-0.515
			c0.285-0.629,0.639-1.259,1.054-1.873l0.093-0.138c0.097-0.148,0.195-0.295,0.302-0.437c0.153-0.203,0.322-0.398,0.491-0.592
			l0.127-0.147c0.126-0.146,0.25-0.292,0.384-0.43c0.193-0.2,0.401-0.392,0.613-0.584c0.178-0.161,0.357-0.324,0.546-0.477
			c0.145-0.118,0.296-0.232,0.449-0.345c-0.512-2.056-1.841-3.791-3.712-4.817c-1.402-0.77-3.276-1.16-5.568-1.16l-0.327,0.003
			C45.038,211.764,41.242,212.817,39.647,213.314z"/>
	</g>
	<g>
		<path d="M81.48,255.698c-0.062,0-0.126-0.007-0.188-0.019c-0.202-0.042-4.986-1.026-9.307-3.363
			c-0.226-0.123-0.392-0.331-0.461-0.578c-0.068-0.248-0.033-0.513,0.098-0.733c1.335-2.258,2.012-4.386,2.012-6.323
			c0-1.246-0.296-2.439-0.879-3.544c-0.242-0.457-0.071-1.024,0.383-1.271c0.453-0.246,1.024-0.083,1.276,0.37
			c0.697,1.248,1.723,2.269,2.97,2.953c1.403,0.77,3.279,1.16,5.574,1.16l0.343-0.003c0.232-0.009,0.501,0.095,0.684,0.277
			s0.281,0.428,0.277,0.685c-0.089,5.019-1.825,9.591-1.899,9.783C82.217,255.463,81.863,255.698,81.48,255.698z M73.735,251.095
			c2.82,1.388,5.754,2.207,7.13,2.547c0.436-1.339,1.273-4.249,1.468-7.413c-2.341-0.069-4.309-0.533-5.86-1.384
			c-0.334-0.183-0.654-0.386-0.962-0.607c0.007,0.147,0.01,0.295,0.01,0.443C75.522,246.703,74.921,248.857,73.735,251.095z"/>
	</g>
	<g>
		<path d="M66.829,240.837c-0.492,0-0.907-0.381-0.941-0.881c-0.035-0.52,0.359-0.971,0.879-1.006l0.234-0.014
			c0.174-0.01,0.347-0.019,0.52-0.042c0,0,0-0.001,0.003-0.001c0.515-0.075,0.991,0.293,1.062,0.808
			c0.07,0.516-0.292,0.992-0.807,1.063c-0.22,0.029-0.446,0.043-0.67,0.057l-0.214,0.013
			C66.872,240.836,66.85,240.837,66.829,240.837z"/>
	</g>
	<g>
		<path d="M68.435,240.618c-0.439,0-0.832-0.307-0.924-0.754c-0.013-0.063-0.02-0.128-0.02-0.192c0-0.438,0.307-0.831,0.754-0.923
			l0.25-0.048c0.112-0.02,0.225-0.041,0.335-0.068c0.01-0.003,0.021-0.006,0.031-0.008v-0.001v0.001c0,0,0,0,0.001,0l-0.001-0.001
			c0.504-0.134,1.022,0.163,1.158,0.667s-0.163,1.022-0.667,1.158l-0.001-0.002l0,0l0.001,0.002l-0.001-0.002
			c-0.02,0.007-0.041,0.013-0.06,0.018l0,0l0,0c-0.007,0.002-0.012,0.003-0.018,0.005c-0.145,0.036-0.293,0.063-0.439,0.091
			l-0.21,0.04C68.563,240.612,68.498,240.618,68.435,240.618z M68.832,238.633l0.229,0.916L68.832,238.633z"/>
	</g>
	<g>
		<path d="M74.63,237.2c-0.233,0-0.466-0.086-0.65-0.259c-0.371-0.35-0.395-0.931-0.059-1.311l0.68,0.654l-0.68-0.654l0,0
			l0.68,0.654l-0.68-0.654c0.007-0.008,0.014-0.015,0.02-0.022l0,0l0.001-0.001l0,0c0,0,0.001-0.001,0.002-0.002
			c0.002-0.002,0.005-0.005,0.008-0.008c0.089-0.094,0.172-0.193,0.256-0.291l0.095-0.11c0.341-0.395,0.938-0.436,1.33-0.097
			c0.395,0.34,0.439,0.936,0.098,1.33l-0.072,0.084c-0.109,0.127-0.217,0.255-0.332,0.376c-0.005,0.005-0.008,0.008-0.013,0.013l0,0
			c-0.001,0.001-0.001,0.001-0.001,0.001l0,0C75.131,237.101,74.88,237.2,74.63,237.2z"/>
	</g>
	<g>
		<path d="M73.527,238.214c-0.275,0-0.547-0.119-0.733-0.348c-0.33-0.404-0.268-0.998,0.136-1.327
			c0.161-0.131,0.313-0.27,0.465-0.409c0.001-0.001,0.003-0.003,0.004-0.004l0,0c0.387-0.351,0.984-0.322,1.334,0.061
			c0.351,0.385,0.324,0.983-0.061,1.334c-0.179,0.163-0.359,0.326-0.547,0.479c0,0-0.001,0.002-0.003,0.002
			C73.947,238.145,73.736,238.214,73.527,238.214z"/>
	</g>
	<g>
		<path d="M72.184,239.161c-0.32,0-0.633-0.162-0.809-0.456c-0.269-0.447-0.126-1.026,0.32-1.295
			c0.001-0.001,0.002-0.001,0.002-0.002h0.001c0.239-0.144,0.466-0.302,0.69-0.463c0.425-0.3,1.013-0.204,1.317,0.219
			c0.302,0.423,0.206,1.012-0.217,1.317l-0.101,0.078c-0.079,0.061-0.159,0.123-0.243,0.178c-0.116,0.077-0.233,0.146-0.351,0.216
			l-0.122,0.073C72.518,239.118,72.35,239.161,72.184,239.161z"/>
	</g>
	<g>
		<path d="M75.531,236.142c-0.198,0-0.398-0.062-0.569-0.192c-0.415-0.314-0.498-0.906-0.183-1.321
			c0.04-0.053,0.076-0.106,0.113-0.161l0.2-0.3c0.291-0.432,0.876-0.548,1.31-0.255c0.431,0.291,0.547,0.876,0.257,1.309
			l-0.193,0.291c-0.003,0.005-0.006,0.008-0.008,0.012c0,0.001-0.001,0.001-0.001,0.002l0,0l0,0
			c-0.056,0.082-0.112,0.164-0.174,0.244C76.099,236.014,75.816,236.142,75.531,236.142z"/>
	</g>
	<g>
		<path d="M71.472,239.541c-0.35,0-0.691-0.182-0.855-0.509c-0.232-0.462-0.078-1.01,0.381-1.248h0.001
			c0.005-0.002,0.008-0.004,0.029-0.015c0.008-0.005,0.018-0.009,0.025-0.013c0.004-0.002,0.007-0.004,0.009-0.005
			c0.004-0.002,0.008-0.004,0.011-0.006l0.001-0.001c0.007-0.004,0.009-0.004,0.015-0.007l0.116-0.056
			c0.071-0.034,0.143-0.067,0.213-0.106c0.45-0.255,1.024-0.099,1.282,0.349c0.245,0.424,0.124,0.959-0.266,1.239
			c-0.024,0.018-0.049,0.033-0.075,0.049c-0.015,0.008-0.068,0.041-0.08,0.047c-0.076,0.043-0.178,0.092-0.281,0.138l-0.1,0.047
			C71.762,239.51,71.616,239.541,71.472,239.541z"/>
	</g>
	<g>
		<path d="M70.109,240.145c-0.384,0-0.745-0.236-0.886-0.618c-0.179-0.489,0.07-1.031,0.559-1.211c0-0.001,0.001-0.001,0.002-0.001
			l0,0c0,0,0,0,0.001,0c0.07-0.026,0.143-0.05,0.215-0.073c0.055-0.018,0.109-0.033,0.161-0.056
			c0.481-0.196,1.034,0.033,1.231,0.516c0.198,0.482-0.032,1.034-0.515,1.232c-0.101,0.042-0.206,0.076-0.309,0.109l-0.134,0.044
			C70.328,240.128,70.216,240.145,70.109,240.145z"/>
	</g>
	<g>
		<path fill="none" d="M71.988,238.347c-0.034,0.02-0.071,0.032-0.105,0.052c-0.016,0.009-0.029,0.02-0.045,0.027
			c0.625,0.581,1.163,1.252,1.594,1.996c-0.398-0.777-0.668-1.612-0.812-2.47c-0.142,0.094-0.291,0.178-0.436,0.264
			C72.116,238.257,72.057,238.307,71.988,238.347z"/>
	</g>
	<g>
		<path d="M50.683,256.65c-0.382,0-0.736-0.234-0.88-0.602c-0.08-0.209-1.982-5.157-2.229-10.283
			c-0.012-0.252,0.077-0.499,0.249-0.686c0.172-0.187,0.411-0.295,0.663-0.303c2.648-0.088,4.825-0.668,6.474-1.726
			c1.713-1.098,2.905-2.836,3.325-4.823c-0.226-0.32-0.236-0.761,0.006-1.096c0.303-0.423,0.892-0.52,1.317-0.216
			c0.001,0,0.001,0.001,0.002,0.001l0,0c0.001,0.001,0.002,0.002,0.003,0.003c0,0,0.001,0,0.001,0.001l0,0l0,0
			c0.456,0.328,0.962,0.628,1.546,0.919h0.001c0,0,0.001,0,0.001,0.001c0.466,0.231,0.657,0.798,0.426,1.265
			c-0.215,0.434-0.718,0.629-1.162,0.47c-1.283,1.401-1.985,3.193-1.985,5.108c0,1.93,0.812,4.183,2.414,6.696
			c0.279,0.437,0.153,1.017-0.282,1.299c-4.373,2.838-9.483,3.909-9.698,3.953C50.81,256.643,50.746,256.65,50.683,256.65z
			 M49.524,246.609c0.299,3.347,1.278,6.552,1.764,7.979c1.434-0.373,4.577-1.312,7.473-3.013c-1.468-2.506-2.211-4.821-2.211-6.894
			c0-0.149,0.004-0.297,0.011-0.448c-0.188,0.142-0.382,0.277-0.582,0.405C54.254,245.746,52.087,246.406,49.524,246.609z"/>
	</g>
	<g>
		<path d="M57.729,237.505c-0.237,0-0.475-0.089-0.658-0.267l-0.171-0.169c-0.004-0.004-0.008-0.008-0.012-0.011
			c-0.186-0.188-0.367-0.38-0.541-0.58c-0.006-0.007-0.011-0.012-0.016-0.019l0,0c-0.342-0.394-0.299-0.99,0.094-1.331
			c0.394-0.344,0.99-0.301,1.331,0.094c0.152,0.175,0.309,0.341,0.471,0.504l0.061,0.06c0.244,0.171,0.402,0.453,0.402,0.773
			c0,0.522-0.422,0.944-0.944,0.944C57.743,237.505,57.737,237.505,57.729,237.505z"/>
	</g>
	<g>
		<path d="M56.818,236.512c-0.274,0-0.545-0.118-0.732-0.347c-0.236-0.289-0.46-0.584-0.672-0.893
			c-0.295-0.431-0.184-1.018,0.245-1.313c0.43-0.295,1.018-0.185,1.312,0.245c0.001,0,0.001,0,0.001,0l0,0
			c0,0.001,0.001,0.002,0.001,0.002c0.181,0.264,0.374,0.518,0.574,0.763c0,0.001,0,0.001,0.001,0.002l0,0
			c0.33,0.404,0.27,0.999-0.134,1.328C57.239,236.442,57.028,236.512,56.818,236.512z"/>
	</g>
	<g>
		<path d="M64.792,240.809c-0.032,0-0.065-0.002-0.098-0.006c-0.239-0.025-0.476-0.056-0.709-0.093
			c-0.516-0.083-0.865-0.568-0.782-1.082c0.082-0.515,0.568-0.868,1.082-0.782l0,0l0,0c0.004,0.001,0.007,0.001,0.009,0.002
			c0.194,0.03,0.389,0.057,0.585,0.076c0.003,0.001,0.007,0.001,0.009,0.002c0,0,0,0,0.001,0c0.518,0.054,0.894,0.518,0.84,1.037
			C65.68,240.449,65.269,240.809,64.792,240.809z"/>
	</g>
	<g>
		<path d="M58.738,238.382c-0.201,0-0.404-0.063-0.575-0.196c-0.244-0.188-0.482-0.381-0.71-0.584
			c-0.003-0.003-0.005-0.005-0.008-0.008l-0.079-0.071c-0.384-0.352-0.412-0.95-0.059-1.334c0.352-0.385,0.949-0.411,1.334-0.059
			l0,0l0,0c0.013,0.012,0.025,0.024,0.039,0.036c0.01,0.009,0.02,0.019,0.031,0.027c0.195,0.174,0.397,0.336,0.602,0.495
			c0.001,0.002,0.004,0.004,0.004,0.004c0.413,0.318,0.489,0.911,0.171,1.324C59.301,238.255,59.022,238.382,58.738,238.382z"/>
	</g>
	<g>
		<path d="M62.059,240.187c-0.104,0-0.21-0.017-0.313-0.054l-0.092-0.031c-0.215-0.076-0.43-0.151-0.64-0.241
			c-0.48-0.204-0.703-0.758-0.499-1.238c0.205-0.481,0.758-0.702,1.239-0.5c0,0,0,0.001,0.001,0.001l0,0
			c0.001,0,0.002,0.001,0.004,0.001c0.162,0.069,0.33,0.127,0.497,0.185l0.029,0.011c0.422,0.094,0.736,0.471,0.736,0.922
			c0,0.52-0.42,0.942-0.94,0.944C62.073,240.187,62.067,240.187,62.059,240.187z"/>
	</g>
	<g>
		<path d="M63.408,240.578c-0.068,0-0.138-0.008-0.207-0.023c-0.25-0.056-0.499-0.113-0.745-0.184
			c-0.414-0.12-0.683-0.497-0.683-0.906c0-0.087,0.012-0.176,0.037-0.262c0.145-0.499,0.668-0.788,1.169-0.646
			c0.002,0.001,0.004,0.001,0.005,0.002l0,0c0.207,0.059,0.416,0.107,0.626,0.154c0,0,0.001,0,0.002,0.001h0.001
			c0.509,0.113,0.829,0.618,0.715,1.126C64.23,240.28,63.84,240.578,63.408,240.578z"/>
	</g>
	<g>
		<path d="M66.037,259.843c-0.224,0-0.448-0.079-0.626-0.237c-0.144-0.129-3.592-3.199-6.151-7.214
			c-1.798-2.821-2.71-5.415-2.71-7.71c0-2.616,1.104-5.144,3.029-6.937c0.299-0.279,0.744-0.334,1.102-0.135
			c0.079,0.043,0.162,0.08,0.245,0.118l0.381,0.182c0.147,0.074,0.295,0.147,0.448,0.212c0.163,0.07,0.333,0.128,0.501,0.187
			l0.118,0.042c0.241,0.085,0.421,0.149,0.607,0.203c0.208,0.059,0.419,0.109,0.632,0.157c0.227,0.052,0.448,0.097,0.673,0.133
			c0.2,0.032,0.4,0.059,0.604,0.08c0.516,0.055,1.074,0.093,1.605,0.046l0.507-0.036c0.175-0.01,0.348-0.019,0.52-0.042
			c0.16-0.021,0.317-0.058,0.476-0.092l0.499-0.101c0.124-0.022,0.247-0.044,0.367-0.076c0.277-0.074,0.547-0.174,0.818-0.272
			l0.106-0.039c0.065-0.024,0.139-0.048,0.212-0.071c0.055-0.018,0.109-0.033,0.161-0.056c0.246-0.099,0.484-0.223,0.722-0.345
			l0.12-0.061c0.068-0.034,0.143-0.069,0.217-0.102c0.053-0.024,0.105-0.047,0.155-0.075c0.36-0.202,0.806-0.15,1.107,0.131
			c0.7,0.65,1.294,1.396,1.768,2.216l0.162,0.287c0.729,1.379,1.109,2.91,1.109,4.445c0,2.281-0.766,4.732-2.276,7.285
			c-2.585,4.374-6.451,7.534-6.614,7.665C66.458,259.773,66.247,259.843,66.037,259.843z M60.419,239.579
			c-1.28,1.401-1.98,3.191-1.98,5.103c0,1.93,0.812,4.183,2.414,6.696c1.802,2.826,4.126,5.208,5.208,6.25
			c1.167-1.051,3.741-3.547,5.56-6.623c1.335-2.258,2.012-4.386,2.012-6.323c0-1.246-0.296-2.439-0.879-3.544l-0.039-0.064
			c-0.043-0.074-0.086-0.147-0.125-0.223c-0.256-0.442-0.575-0.875-0.944-1.278c-0.256,0.13-0.511,0.257-0.771,0.364
			c-0.098,0.041-0.2,0.074-0.303,0.107l-0.245,0.085c-0.324,0.118-0.648,0.234-0.975,0.322c-0.167,0.044-0.34,0.077-0.515,0.11
			l-0.436,0.088c-0.208,0.046-0.414,0.091-0.622,0.119c-0.22,0.029-0.446,0.043-0.67,0.057l-0.449,0.031
			c-0.673,0.059-1.365,0.014-1.965-0.05c-0.239-0.025-0.476-0.056-0.709-0.093c-0.265-0.043-0.528-0.096-0.789-0.156
			c-0.245-0.055-0.494-0.112-0.739-0.183c-0.222-0.064-0.437-0.14-0.653-0.217l-0.172-0.059c-0.207-0.073-0.414-0.145-0.614-0.23
			c-0.187-0.079-0.371-0.171-0.553-0.262L60.419,239.579z"/>
	</g>
	<g>
		<path d="M47.785,246.676L47.785,246.676c-4.761,0-9.011-1.395-9.19-1.453c-0.437-0.145-0.705-0.585-0.635-1.041
			c0.034-0.219,0.856-5.423,3.189-9.975c1.312-2.563,2.857-4.426,4.592-5.539c2.593-1.662,5.914-1.947,8.75-0.772
			c0.332,0.138,0.557,0.451,0.582,0.808l0.027,0.221c0.022,0.262,0.054,0.519,0.094,0.777c0.03,0.195,0.064,0.384,0.104,0.573
			c0.042,0.198,0.091,0.4,0.145,0.602c0.066,0.247,0.14,0.485,0.221,0.721c0.05,0.144,0.103,0.29,0.161,0.435
			c0.113,0.291,0.241,0.57,0.377,0.848c0.23,0.465,0.491,0.911,0.771,1.324c0.179,0.262,0.373,0.516,0.575,0.765l0.207,0.249
			c0.203,0.233,0.414,0.452,0.633,0.665l0.253,0.244c0.217,0.199,0.444,0.383,0.676,0.563c0.003,0.002,0.078,0.061,0.081,0.063
			c0.071,0.056,0.142,0.111,0.215,0.165c0.048,0.034,0.098,0.075,0.149,0.115l0.076,0.059c0.298,0.203,0.454,0.558,0.403,0.915
			c-0.395,2.733-1.947,5.149-4.261,6.631c-1.94,1.244-4.441,1.924-7.432,2.023C48.293,246.672,48.038,246.676,47.785,246.676z
			 M39.973,243.662c1.405,0.387,4.515,1.125,7.809,1.125c0.001,0,0.001,0,0.001,0c0.233,0,0.466-0.004,0.701-0.011
			c2.648-0.088,4.825-0.668,6.474-1.726c1.701-1.089,2.887-2.81,3.316-4.777c-0.016-0.012-0.031-0.024-0.046-0.036
			c-0.341-0.264-0.608-0.482-0.863-0.716c-0.075-0.068-0.147-0.14-0.221-0.212l-0.073-0.072c-0.258-0.251-0.506-0.508-0.74-0.779
			c-0.068-0.077-0.137-0.161-0.204-0.244c-0.278-0.339-0.501-0.635-0.714-0.944c-0.332-0.487-0.636-1.008-0.905-1.554
			c-0.161-0.325-0.308-0.654-0.442-0.993c-0.066-0.168-0.127-0.337-0.187-0.508c-0.097-0.279-0.183-0.56-0.26-0.846
			c-0.063-0.232-0.12-0.469-0.171-0.706c-0.047-0.226-0.087-0.448-0.122-0.67c-0.028-0.181-0.054-0.364-0.074-0.546
			c-2.144-0.715-4.574-0.423-6.494,0.809c-1.45,0.929-2.773,2.547-3.932,4.811C41.156,238.333,40.293,242.055,39.973,243.662z"/>
	</g>
	<g>
		<path d="M90.02,235.032c-0.074,0-0.147-0.008-0.219-0.025c-0.247-0.059-0.459-0.215-0.59-0.432
			c-1.32-2.199-2.842-3.781-4.521-4.701c-1.849-1.015-4.089-1.209-6.075-0.539c-0.197,0.232-0.499,0.38-0.804,0.341
			c-0.505-0.051-0.886-0.447-0.852-0.954c0.034-0.527,0.03-1.053-0.01-1.566c0-0.004-0.001-0.01-0.001-0.012
			c-0.04-0.519,0.348-0.973,0.868-1.013c0.36-0.027,0.695,0.154,0.876,0.444c2.17,0.753,4.643,0.473,6.592-0.777
			c1.454-0.932,2.777-2.553,3.935-4.818c0.118-0.229,0.324-0.401,0.57-0.475c0.248-0.074,0.514-0.043,0.737,0.085
			c4.368,2.492,7.554,6.219,7.688,6.376c0.298,0.352,0.298,0.869,0,1.221c-0.138,0.163-3.44,4.035-7.694,6.705
			C90.37,234.984,90.196,235.032,90.02,235.032z M85.183,228.002c0.139,0.067,0.279,0.139,0.415,0.214
			c1.751,0.96,3.33,2.491,4.707,4.556c2.692-1.838,4.929-4.12,5.921-5.194c-0.966-1.027-3.121-3.161-5.803-4.853
			c-1.204,2.112-2.587,3.678-4.118,4.66C85.943,227.616,85.568,227.823,85.183,228.002z"/>
	</g>
	<g>
		<path d="M77.725,231.162c-0.056,0-0.111-0.005-0.169-0.015c-0.508-0.093-0.847-0.574-0.765-1.082
			c0.001-0.003,0.002-0.007,0.002-0.009c0-0.001,0.001-0.002,0.001-0.004c0,0,0-0.001,0-0.002l0,0l0.06-0.347
			c0.081-0.515,0.569-0.859,1.079-0.786c0.516,0.081,0.867,0.565,0.787,1.079l-0.007,0.034l-0.059,0.337
			c0,0.004-0.001,0.007-0.002,0.01l-0.001,0.008C78.57,230.842,78.173,231.162,77.725,231.162z"/>
	</g>
	<g>
		<path d="M76.88,233.852c-0.131,0-0.263-0.026-0.39-0.085c-0.475-0.216-0.685-0.775-0.468-1.249l0.153-0.361
			c0.198-0.482,0.75-0.715,1.231-0.516c0.482,0.196,0.714,0.746,0.518,1.229l-0.094,0.225c-0.002,0.006-0.005,0.011-0.007,0.017
			l-0.001,0.002c-0.003,0.006-0.006,0.011-0.008,0.018l-0.076,0.17C77.581,233.648,77.239,233.852,76.88,233.852z"/>
	</g>
	<g>
		<path d="M77.378,232.547c-0.094,0-0.19-0.014-0.285-0.044c-0.403-0.127-0.66-0.499-0.659-0.9c0-0.095,0.014-0.191,0.044-0.285
			c0.038-0.119,0.073-0.239,0.105-0.358c0.138-0.503,0.656-0.802,1.159-0.663c0.502,0.137,0.8,0.654,0.663,1.159v0.001l0,0
			c0,0.001,0,0.001,0,0.001c-0.04,0.144-0.082,0.288-0.127,0.431C78.151,232.29,77.779,232.547,77.378,232.547z"/>
	</g>
	<g>
		<path d="M77.104,224.607c-0.376,0-0.732-0.226-0.879-0.598c-0.045-0.115-0.093-0.229-0.141-0.343c0-0.001,0-0.001-0.001-0.001
			c-0.073-0.168-0.15-0.334-0.23-0.499c-0.228-0.467-0.036-1.033,0.432-1.262c0.473-0.229,1.034-0.037,1.263,0.43
			c0.095,0.192,0.184,0.385,0.269,0.581l0,0c0.059,0.134,0.113,0.267,0.166,0.404c0.191,0.485-0.048,1.032-0.533,1.223
			C77.336,224.586,77.219,224.607,77.104,224.607z"/>
	</g>
	<g>
		<path d="M77.513,225.853c-0.416,0-0.798-0.278-0.911-0.7c0,0,0-0.001-0.001-0.002l0,0l0,0c-0.039-0.146-0.081-0.293-0.127-0.438
			l-0.084-0.256c-0.17-0.492,0.093-1.03,0.584-1.2c0.492-0.17,1.029,0.092,1.2,0.584v0.001l0.093,0.277
			c0.002,0.008,0.005,0.017,0.008,0.024v0.001l0,0c0,0,0.001,0.001,0.001,0.002c0.054,0.172,0.104,0.344,0.151,0.519
			c0.134,0.503-0.166,1.02-0.669,1.155C77.676,225.843,77.594,225.853,77.513,225.853z"/>
	</g>
	<g>
		<path d="M77.783,227.121c-0.456,0-0.858-0.332-0.931-0.797l-0.025-0.158c-0.021-0.127-0.045-0.252-0.071-0.377
			c-0.105-0.51,0.222-1.008,0.732-1.115c0.504-0.109,1.009,0.22,1.117,0.729c0.031,0.148,0.059,0.296,0.084,0.446
			c0,0.001,0,0.002,0,0.002v0.001l0,0c0.001,0.004,0.001,0.008,0.002,0.01l0.027,0.169c0.08,0.515-0.272,0.998-0.787,1.079
			C77.881,227.118,77.832,227.121,77.783,227.121z"/>
	</g>
	<g>
		<path d="M81.2,228.883L81.2,228.883c-1.256,0-2.482-0.244-3.645-0.724c-0.334-0.138-0.56-0.452-0.582-0.813
			c-0.014-0.093-0.02-0.147-0.025-0.204c-0.022-0.271-0.056-0.545-0.098-0.82c-0.027-0.178-0.059-0.355-0.096-0.532
			c-0.043-0.211-0.094-0.422-0.152-0.633c-0.063-0.241-0.135-0.472-0.213-0.7c-0.052-0.15-0.106-0.3-0.164-0.45
			c-0.112-0.287-0.238-0.567-0.373-0.841c-0.228-0.464-0.487-0.91-0.768-1.323c-0.18-0.267-0.374-0.524-0.578-0.772
			c-0.071-0.088-0.138-0.171-0.208-0.251c-0.2-0.232-0.412-0.452-0.631-0.665l-0.254-0.246c-0.217-0.198-0.445-0.383-0.676-0.564
			l-0.299-0.231c-0.048-0.034-0.1-0.076-0.154-0.119l-0.079-0.061c-0.296-0.205-0.452-0.56-0.399-0.917
			c0.402-2.72,1.954-5.127,4.257-6.603c1.946-1.246,4.451-1.928,7.447-2.024c5.053-0.16,9.751,1.377,9.939,1.439
			c0.437,0.145,0.705,0.585,0.635,1.04c-0.034,0.219-0.855,5.416-3.183,9.967c-1.312,2.567-2.859,4.433-4.597,5.548
			C84.775,228.365,83.01,228.883,81.2,228.883z M78.793,226.607c0.776,0.258,1.584,0.388,2.407,0.388l0,0
			c1.447,0,2.86-0.415,4.085-1.2c1.454-0.932,2.777-2.553,3.935-4.818c1.667-3.258,2.53-6.979,2.851-8.587
			c-1.504-0.414-4.945-1.237-8.499-1.114c-2.651,0.086-4.833,0.667-6.488,1.727c-1.691,1.084-2.877,2.796-3.31,4.753
			c0.018,0.013,0.034,0.026,0.051,0.04l0.076,0.059c0.271,0.212,0.534,0.428,0.788,0.659c0.076,0.069,0.149,0.141,0.223,0.214
			l0.075,0.073c0.259,0.254,0.507,0.512,0.742,0.783c0.083,0.097,0.163,0.195,0.244,0.295c0.236,0.29,0.463,0.59,0.675,0.903
			c0.33,0.485,0.634,1.007,0.902,1.553c0.158,0.323,0.303,0.649,0.434,0.984c0.069,0.175,0.131,0.348,0.192,0.524
			c0.093,0.271,0.178,0.545,0.252,0.823c0.065,0.243,0.126,0.491,0.178,0.741c0.042,0.208,0.079,0.414,0.112,0.624
			C78.747,226.223,78.772,226.415,78.793,226.607z"/>
	</g>
	<g>
		<path d="M82.956,246.239c-2.616,0-4.797-0.468-6.483-1.394c-1.555-0.854-2.838-2.129-3.709-3.688l-0.049-0.084
			c-0.043-0.074-0.086-0.147-0.125-0.223c-0.435-0.851-0.739-1.774-0.903-2.742c-0.061-0.367,0.098-0.736,0.408-0.942
			c0.042-0.028,0.082-0.06,0.122-0.093l0.169-0.128c0.189-0.135,0.372-0.269,0.548-0.412c0.16-0.129,0.312-0.268,0.465-0.409
			c0.194-0.177,0.364-0.33,0.522-0.495c0.108-0.111,0.207-0.228,0.306-0.344l0.076-0.089c0.204-0.234,0.347-0.398,0.476-0.569
			c0.075-0.098,0.14-0.198,0.206-0.298l0.262-0.384c0.073-0.1,0.145-0.201,0.209-0.307l0.077-0.141
			c0.137-0.24,0.238-0.415,0.329-0.598c0.026-0.055,0.05-0.113,0.073-0.172l0.086-0.206c0.058-0.126,0.107-0.245,0.156-0.366
			c0.11-0.274,0.213-0.554,0.302-0.838c0.038-0.122,0.073-0.24,0.106-0.36c0.086-0.307,0.155-0.61,0.213-0.917l0.059-0.34
			c0.05-0.324,0.084-0.652,0.105-0.983c0.002-0.023,0.015-0.138,0.018-0.161c0.047-0.339,0.285-0.735,0.604-0.859
			c2.591-1.011,5.574-0.823,8.016,0.516c1.977,1.084,3.737,2.896,5.232,5.386c2.642,4.398,3.561,9.39,3.599,9.601
			c0.081,0.452-0.177,0.899-0.61,1.055c-0.214,0.077-5.305,1.892-10.488,1.98L82.956,246.239z M73.665,238.352
			c0.14,0.574,0.344,1.124,0.608,1.64l0.139,0.245c0.698,1.249,1.724,2.27,2.97,2.953c1.403,0.77,3.279,1.16,5.574,1.16l0.343-0.003
			c3.721-0.062,7.506-1.114,9.099-1.611c-0.363-1.546-1.326-5.063-3.188-8.164c-1.32-2.198-2.842-3.781-4.521-4.701
			c-1.789-0.982-3.946-1.197-5.88-0.602c-0.023,0.246-0.053,0.485-0.09,0.724l-0.064,0.374c-0.072,0.384-0.154,0.74-0.253,1.093
			c-0.037,0.138-0.079,0.282-0.126,0.425c-0.103,0.331-0.222,0.659-0.354,0.983c-0.06,0.148-0.12,0.291-0.184,0.432l-0.053,0.129
			c-0.042,0.104-0.085,0.209-0.135,0.309c-0.108,0.217-0.226,0.425-0.345,0.633c-0.007,0.011-0.053,0.093-0.059,0.104
			c-0.008,0.014-0.062,0.117-0.071,0.13c-0.09,0.15-0.191,0.295-0.294,0.439l-0.222,0.324c-0.09,0.136-0.178,0.271-0.278,0.401
			c-0.153,0.204-0.324,0.401-0.495,0.598l-0.127,0.147c-0.124,0.144-0.247,0.288-0.378,0.424c-0.186,0.195-0.387,0.379-0.591,0.565
			c-0.202,0.183-0.381,0.347-0.57,0.499C73.972,238.124,73.82,238.239,73.665,238.352z"/>
	</g>
</g>
<g>
	<path d="M66.022,240.889c-2.185,0-4.35-0.564-6.259-1.629c-0.337-0.189-0.668-0.389-0.987-0.606
		c-3.303-2.254-5.339-5.835-5.591-9.828l-0.011-0.165c-0.015-0.215-0.028-0.43-0.028-0.649c0-0.135,0.008-0.265,0.017-0.398
		l0.011-0.18c0.183-4.089,2.324-7.88,5.725-10.144c0.279-0.187,0.569-0.362,0.864-0.527c3.828-2.134,8.714-2.13,12.534,0.011
		c0.334,0.186,0.662,0.384,0.976,0.601c3.308,2.259,5.342,5.851,5.584,9.854l0.012,0.174c0.014,0.202,0.026,0.405,0.026,0.61
		c0,0.146-0.009,0.291-0.019,0.435l-0.011,0.178c-0.192,4.073-2.332,7.855-5.725,10.112c-0.275,0.182-0.555,0.351-0.842,0.512
		C70.384,240.322,68.213,240.889,66.022,240.889z M66.022,217.026c-1.864,0-3.71,0.481-5.338,1.388
		c-0.252,0.141-0.499,0.29-0.738,0.449c-2.902,1.932-4.729,5.167-4.885,8.654l-0.013,0.226c-0.007,0.09-0.013,0.179-0.013,0.271
		c0,0.176,0.013,0.347,0.024,0.52l0.012,0.176c0.214,3.407,1.952,6.464,4.768,8.385c0.272,0.184,0.555,0.357,0.846,0.518
		c3.258,1.819,7.427,1.819,10.693-0.01c0.245-0.138,0.487-0.282,0.721-0.437c2.892-1.925,4.718-5.152,4.882-8.63l0.013-0.214
		c0.008-0.102,0.015-0.205,0.015-0.308c0-0.162-0.012-0.322-0.023-0.481l-0.012-0.189c-0.206-3.416-1.943-6.48-4.765-8.408
		c-0.268-0.183-0.548-0.352-0.833-0.512C69.743,217.509,67.892,217.026,66.022,217.026z"/>
</g>
<g>
	<path d="M66.022,217.026c-0.522,0-0.944-0.422-0.944-0.944v-8.025c0-0.522,0.422-0.944,0.944-0.944
		c0.522,0,0.944,0.422,0.944,0.944v8.025C66.966,216.604,66.544,217.026,66.022,217.026z"/>
</g>
<g>
	<path d="M66.022,248.914c-0.522,0-0.944-0.422-0.944-0.944v-8.025c0-0.522,0.422-0.944,0.944-0.944
		c0.522,0,0.944,0.422,0.944,0.944v8.025C66.966,248.491,66.544,248.914,66.022,248.914z"/>
</g>
<g>
	<path d="M76.375,223.024c-0.328,0-0.646-0.171-0.82-0.475c-0.26-0.452-0.103-1.029,0.349-1.288l6.962-3.991
		c0.451-0.259,1.029-0.103,1.288,0.349c0.26,0.452,0.103,1.029-0.349,1.288l-6.962,3.991
		C76.696,222.984,76.535,223.024,76.375,223.024z"/>
</g>
<g>
	<path d="M48.709,238.882c-0.328,0-0.646-0.171-0.82-0.475c-0.26-0.452-0.103-1.029,0.349-1.288l6.962-3.991
		c0.45-0.259,1.028-0.103,1.288,0.349c0.26,0.452,0.103,1.029-0.349,1.288l-6.962,3.991
		C49.03,238.842,48.869,238.882,48.709,238.882z"/>
</g>
<g>
	<path d="M83.432,238.71c-0.156,0-0.314-0.039-0.46-0.121l-7.001-3.921c-0.455-0.255-0.618-0.83-0.363-1.284
		c0.254-0.456,0.828-0.618,1.284-0.363l7.001,3.921c0.455,0.255,0.618,0.83,0.363,1.284C84.084,238.537,83.763,238.71,83.432,238.71
		z"/>
</g>
<g>
	<path d="M55.612,223.124c-0.156,0-0.314-0.039-0.46-0.121l-7.001-3.921c-0.455-0.255-0.618-0.83-0.363-1.284
		c0.254-0.455,0.828-0.619,1.284-0.363l7.001,3.921c0.455,0.255,0.618,0.83,0.363,1.284
		C56.264,222.951,55.943,223.124,55.612,223.124z"/>
</g>
</svg>
